<?xml version="1.0" encoding="UTF-8" standalone="no"?>
<svg
   xmlns:dc="http://purl.org/dc/elements/1.1/"
   xmlns:cc="http://creativecommons.org/ns#"
   xmlns:rdf="http://www.w3.org/1999/02/22-rdf-syntax-ns#"
   xmlns:svg="http://www.w3.org/2000/svg"
   xmlns="http://www.w3.org/2000/svg"
   xmlns:sodipodi="http://sodipodi.sourceforge.net/DTD/sodipodi-0.dtd"
   xmlns:inkscape="http://www.inkscape.org/namespaces/inkscape"
   version="1.0"
   width="772.000000pt"
   height="750.000000pt"
   viewBox="0 0 772.000000 750.000000"
   preserveAspectRatio="xMidYMid meet"
   id="svg9973"
   sodipodi:docname="uframe_logo.svg"
   inkscape:version="0.92.2 5c3e80d, 2017-08-06">
  <metadata
     id="metadata9979">
    <rdf:RDF>
      <cc:Work
         rdf:about="">
        <dc:format>image/svg+xml</dc:format>
        <dc:type
           rdf:resource="http://purl.org/dc/dcmitype/StillImage" />
        <dc:title></dc:title>
      </cc:Work>
    </rdf:RDF>
  </metadata>
  <defs
     id="defs9977" />
  <sodipodi:namedview
     pagecolor="#ffffff"
     bordercolor="#666666"
     borderopacity="1"
     objecttolerance="10"
     gridtolerance="10"
     guidetolerance="10"
     inkscape:pageopacity="0"
     inkscape:pageshadow="2"
     inkscape:window-width="1608"
     inkscape:window-height="1005"
     id="namedview9975"
     showgrid="false"
     inkscape:zoom="0.55253213"
     inkscape:cx="396.86372"
     inkscape:cy="504.79725"
     inkscape:window-x="72"
     inkscape:window-y="1"
     inkscape:window-maximized="1"
     inkscape:current-layer="svg9973" />
  <g
     transform="translate(0.000000,750.000000) scale(0.100000,-0.100000)"
     fill="#000000"
     stroke="none"
     id="g9971">
    <path
       d="M3697 7443 c-35 -58 -77 -158 -77 -185 0 -47 -119 -221 -180 -263 -19 -13 -84 -38 -145 -55 -60 -16 -193 -61 -295 -99 l-185 -68 -50 28 c-120 66 -168 100 -200 142 -19 25 -48 55 -65 67 -16 11 -35 33 -42 47 -7 15 -32 42 -56 60 -42 32 -42 32 -90 18 -35 -10 -60 -28 -97 -68 -66 -72 -101 -88 -204 -93 -106 -4 -185 -20 -204 -42 -8 -9 -21 -34 -28 -55 -12 -34 -11 -48 11 -134 l24 -95 -24 -67 c-13 -36 -38 -99 -57 -140 -18 -40 -33 -79 -33 -86 0 -12 153 -95 175 -95 30 -1 35 -17 15 -55 -11 -22 -20 -52 -20 -68 0 -28 1 -29 36 -23 19 4 43 10 51 13 12 5 15 2 10 -10 -5 -13 -1 -17 21 -17 46 0 72 11 72 31 0 39 32 41 188 15 81 -14 177 -31 214 -37 36 -6 75 -17 85 -24 26 -20 38 -18 50 8 12 26 151 177 164 177 5 0 50 20 101 44 158 74 316 133 488 181 91 25 187 53 214 61 26 7 61 14 77 14 16 0 37 5 47 11 14 9 25 8 50 -5 17 -9 37 -16 45 -16 8 0 17 -7 21 -15 3 -8 12 -15 19 -15 8 0 25 -9 39 -19 13 -11 39 -21 57 -23 29 -2 36 1 51 27 30 53 138 54 124 1 -5 -21 -1 -24 31 -30 54 -10 94 1 101 29 5 19 12 23 50 23 25 1 48 3 52 6 15 9 315 -80 427 -127 44 -19 93 -37 109 -41 17 -4 41 -15 55 -25 14 -10 49 -26 76 -36 28 -9 54 -22 60 -26 5 -5 17 -9 26 -9 9 0 41 -22 70 -50 34 -32 94 -70 166 -107 70 -35 129 -72 153 -97 38 -39 110 -147 110 -165 0 -5 18 -25 39 -44 35 -32 47 -36 116 -42 52 -5 82 -13 91 -24 8 -9 33 -38 57 -66 23 -27 63 -75 87 -105 24 -30 60 -73 80 -96 87 -99 280 -398 280 -432 0 -6 8 -13 18 -16 11 -4 42 -55 79 -134 78 -162 87 -186 79 -216 -8 -32 -76 -118 -116 -146 -31 -22 -33 -22 -88 -7 -32 9 -84 22 -117 31 -98 24 -234 66 -325 99 -138 52 -227 40 -266 -35 -23 -44 -51 -68 -80 -68 -14 0 -39 -8 -55 -17 -27 -16 -31 -16 -64 0 -26 12 -62 17 -130 17 l-94 0 -7 56 c-8 65 -1 161 20 289 28 166 25 175 -59 175 -23 0 -62 7 -85 15 -23 8 -44 15 -46 15 -2 0 -1 -42 2 -92 l6 -93 -35 -50 c-19 -27 -48 -69 -64 -92 -33 -50 -47 -55 -38 -13 4 18 3 30 -3 30 -24 0 -41 31 -35 64 11 69 -45 250 -76 244 -12 -3 -19 -24 -28 -93 -6 -50 -12 -91 -12 -92 -1 -2 -12 -3 -26 -3 -44 0 -42 28 9 126 39 75 47 98 41 123 -8 36 -43 58 -100 63 -44 3 -54 -10 -73 -92 -19 -82 -128 -289 -162 -306 -12 -7 -27 -17 -33 -23 -6 -6 -22 -11 -35 -11 -21 0 -24 3 -18 28 4 15 10 83 15 152 10 140 12 148 58 208 52 69 41 88 -34 57 -19 -8 -39 -15 -44 -15 -5 0 -25 32 -44 70 -21 41 -42 70 -51 70 -19 0 -53 -75 -109 -243 -24 -70 -49 -136 -57 -147 -13 -19 -14 -19 -78 4 l-65 23 0 54 c0 30 11 101 23 158 28 128 23 180 -20 216 -20 17 -42 25 -68 25 -21 0 -45 3 -54 6 -12 5 -14 -1 -9 -30 5 -32 2 -37 -25 -53 -38 -22 -52 -50 -53 -111 0 -46 -27 -165 -42 -189 -13 -20 -35 -15 -39 8 -2 15 -18 26 -55 39 -28 10 -56 21 -61 24 -13 8 -1 63 40 188 l31 97 -29 57 c-32 63 -51 79 -107 88 -46 8 -109 -18 -151 -62 -26 -28 -28 -34 -17 -60 16 -37 6 -78 -30 -124 -19 -25 -25 -38 -16 -41 9 -3 7 -10 -6 -23 -18 -19 -18 -19 -12 1 4 11 -7 -2 -24 -30 -18 -28 -30 -59 -28 -72 4 -20 3 -21 -20 -6 -12 8 -32 13 -43 10 -14 -4 -34 9 -73 47 -34 33 -68 57 -93 63 -21 6 -66 23 -99 36 -85 36 -98 62 -90 189 5 90 4 99 -15 118 -19 19 -28 20 -91 14 -51 -5 -80 -3 -112 9 -23 8 -57 18 -74 21 -28 5 -33 2 -33 -14 0 -27 -38 -47 -46 -25 -4 10 1 22 14 31 34 24 37 82 8 135 -14 24 -26 47 -26 51 0 3 18 4 40 1 31 -4 40 -2 40 9 0 20 -181 105 -250 117 -103 18 -157 -6 -325 -142 -77 -63 -106 -76 -85 -37 5 10 12 34 14 52 3 18 14 62 25 98 23 72 26 106 11 115 -5 3 -10 24 -10 46 0 21 -4 39 -9 39 -10 0 -135 -111 -193 -172 -62 -65 -158 -187 -190 -241 -38 -65 -67 -97 -88 -97 -11 0 -29 23 -49 64 -34 69 -99 163 -118 170 -6 3 -30 -4 -52 -15 -89 -43 -235 -61 -311 -39 -80 24 -170 37 -179 26 -28 -36 -53 -109 -98 -291 -3 -11 -32 -42 -65 -70 -61 -51 -138 -154 -138 -185 0 -22 31 -50 55 -50 21 0 118 -97 155 -155 41 -64 48 -87 43 -141 -7 -74 6 -94 65 -94 26 0 79 7 118 16 48 12 88 15 125 10 89 -11 88 -5 45 -168 -50 -187 -82 -347 -100 -503 -18 -152 -30 -175 -124 -239 -73 -49 -132 -66 -228 -66 -44 0 -55 4 -71 24 -10 14 -27 26 -38 27 -25 3 -94 -11 -118 -23 -32 -16 -45 -62 -34 -117 10 -46 8 -53 -31 -133 -40 -83 -50 -95 -131 -172 -33 -32 -41 -46 -41 -76 0 -40 47 -143 61 -134 17 10 83 -48 153 -134 61 -76 67 -87 56 -107 -32 -60 8 -120 91 -135 40 -7 53 -4 139 37 114 55 151 59 203 19 28 -21 53 -31 90 -34 77 -6 103 -31 116 -112 15 -101 26 -135 77 -238 26 -53 66 -137 89 -186 l41 -89 -27 -81 c-85 -250 -96 -276 -145 -329 -27 -29 -64 -63 -82 -75 -37 -26 -62 -75 -62 -120 0 -33 18 -59 112 -167 78 -89 97 -126 133 -250 26 -90 42 -117 80 -138 26 -14 81 -10 108 8 29 18 154 61 203 69 32 6 50 1 102 -25 52 -26 72 -30 108 -26 57 6 92 38 101 90 3 22 16 51 28 65 l22 25 54 -42 c56 -43 149 -119 184 -150 11 -10 45 -33 75 -51 30 -18 64 -41 75 -51 60 -51 452 -264 588 -318 63 -26 70 -40 32 -65 -14 -9 -37 -40 -51 -68 -23 -45 -25 -56 -16 -87 6 -20 14 -49 17 -64 4 -20 21 -38 60 -62 30 -20 59 -44 65 -54 5 -11 15 -64 20 -118 15 -143 19 -160 50 -193 39 -41 91 -40 216 5 108 39 129 41 211 20 77 -20 225 -20 264 0 l30 16 -3 103 -3 103 48 59 c26 33 61 82 78 111 35 60 10 53 279 78 172 17 225 24 399 56 140 26 290 44 298 36 6 -6 -29 -51 -103 -132 l-32 -35 77 -41 c62 -34 160 -101 204 -140 5 -4 4 -17 -3 -29 -9 -17 -9 -25 4 -39 9 -10 16 -31 16 -47 0 -127 85 -167 220 -103 36 17 76 41 90 53 71 66 237 57 328 -16 7 -6 15 -8 19 -4 4 3 -10 23 -30 44 -32 34 -34 39 -22 56 13 17 20 18 62 9 38 -9 53 -8 76 3 32 17 27 34 -9 34 -15 0 -24 6 -24 15 0 11 11 15 40 15 46 0 54 17 13 26 -99 22 -118 44 -37 44 49 0 58 15 18 30 -21 9 -25 15 -20 35 6 23 3 25 -26 25 -30 0 -31 1 -12 14 10 8 30 13 44 10 23 -5 24 -4 7 9 -12 10 -14 16 -6 19 8 3 9 9 4 19 -5 8 -10 20 -11 28 -2 7 -11 23 -22 35 -24 26 -35 56 -21 56 6 0 13 -9 16 -19 6 -24 33 -36 33 -16 0 8 9 15 20 15 27 0 36 27 45 137 7 86 6 92 -14 103 -12 6 -36 8 -56 4 -28 -5 -35 -3 -35 10 0 9 -11 21 -25 26 -14 5 -25 14 -25 20 0 5 -9 10 -19 10 -10 0 -29 9 -42 20 l-24 20 25 20 c14 11 39 28 55 37 17 8 79 50 138 92 60 42 123 85 141 96 30 18 227 184 251 211 6 6 54 48 107 92 l97 82 40 -73 c22 -39 53 -85 70 -101 17 -17 31 -36 31 -43 0 -24 46 -43 115 -46 l68 -4 51 53 c56 60 58 61 177 42 72 -10 79 -10 119 11 24 12 49 20 56 17 7 -3 16 -1 20 5 3 6 12 8 19 5 9 -3 16 6 20 27 4 18 15 58 26 90 15 48 17 67 8 106 -9 42 -6 60 26 166 20 65 40 126 46 136 18 34 10 86 -17 118 -14 17 -32 31 -40 31 -34 0 -115 53 -165 108 -66 74 -143 201 -169 281 l-20 59 29 29 c21 21 31 43 36 82 4 31 15 61 26 72 10 10 19 31 19 46 0 15 4 40 10 57 12 39 57 199 82 291 31 115 87 619 74 669 -3 14 1 56 10 92 16 62 16 73 0 164 -10 57 -14 113 -10 134 5 31 10 36 33 36 14 0 58 -12 96 -25 85 -30 166 -33 215 -6 40 21 80 74 80 105 0 26 34 136 54 175 9 16 44 52 80 80 71 57 83 82 72 155 -8 48 -36 80 -125 140 -30 21 -60 45 -66 54 -15 21 -35 101 -35 139 -1 36 -20 61 -56 73 -70 21 -138 51 -146 62 -5 9 -21 -1 -55 -37 l-48 -51 -50 7 c-27 4 -106 6 -173 5 l-124 -2 -44 61 c-24 33 -65 89 -91 124 -27 35 -66 92 -88 126 -42 65 -71 106 -219 308 -111 152 -146 206 -146 229 0 12 20 28 58 47 70 35 150 104 158 137 4 15 -1 36 -14 56 -59 99 -112 209 -112 234 1 16 7 55 15 87 9 41 11 67 4 87 -9 26 -15 28 -76 35 -138 15 -263 63 -358 140 -54 44 -83 57 -99 48 -8 -4 -54 -44 -101 -88 -98 -90 -200 -149 -275 -159 -45 -6 -55 -4 -93 22 -99 68 -396 197 -577 251 -84 25 -113 48 -171 132 -25 37 -49 61 -69 68 -25 8 -37 24 -65 85 -19 41 -39 94 -45 118 -20 71 -66 165 -88 177 -32 17 -81 13 -168 -13 -63 -18 -96 -22 -159 -19 -78 4 -231 37 -249 54 -19 17 -36 9 -59 -28z m-47 -177 c0 -8 -4 -18 -10 -21 -5 -3 -10 3 -10 14 0 12 5 21 10 21 6 0 10 -6 10 -14z m473 -152 c45 -21 61 -63 55 -139 -8 -94 -86 -164 -166 -151 -52 8 -130 73 -143 118 -20 77 4 125 87 174 45 28 107 27 167 -2z m-1782 -391 c54 -21 82 -78 77 -154 -5 -69 -30 -103 -87 -119 -87 -24 -148 -3 -205 70 -24 31 -27 41 -21 80 4 25 11 47 16 48 5 2 9 10 9 18 0 8 6 14 13 14 8 0 24 12 38 26 43 47 77 50 160 17z m3617 -289 c65 -32 92 -78 92 -157 0 -63 -17 -84 -94 -117 -40 -17 -61 -20 -103 -14 -86 10 -127 66 -106 144 5 21 6 47 2 59 -13 32 6 70 38 76 15 4 42 12 58 20 42 19 55 18 113 -11z m-3779 -605 c40 -14 81 -90 81 -148 0 -34 7 -48 53 -97 l52 -56 101 1 c158 3 172 -10 137 -118 -16 -49 -15 -54 3 -98 10 -25 28 -51 39 -57 11 -6 22 -14 25 -17 3 -4 47 -21 98 -38 127 -42 149 -55 172 -102 12 -22 27 -42 35 -46 22 -8 18 -22 -5 -16 -21 6 -25 -5 -34 -94 -5 -54 -39 -133 -57 -133 -6 0 -23 8 -37 19 -15 10 -58 32 -97 48 -38 17 -100 45 -137 63 -67 33 -68 33 -89 14 -11 -10 -36 -51 -54 -92 l-34 -73 -29 15 c-29 15 -74 15 -118 1 -18 -6 -32 6 -84 67 -131 152 -173 184 -204 152 -13 -13 -47 -79 -75 -147 -11 -27 -11 -27 -42 -12 -22 12 -30 22 -26 35 3 11 0 21 -6 23 -6 2 10 30 35 63 49 63 88 133 88 159 0 44 -117 43 -170 -1 -28 -24 -30 -24 -36 -7 -32 98 -47 123 -75 123 -26 0 -24 9 12 50 16 19 62 77 101 128 39 51 79 98 88 105 9 7 25 24 34 40 10 15 25 27 32 27 8 0 14 9 14 20 0 13 7 20 20 20 33 0 95 65 124 130 15 33 28 60 30 60 2 0 17 -5 35 -11z m-1232 -324 c30 -9 65 -29 88 -52 l37 -36 -4 -69 c-5 -62 -9 -73 -38 -104 -43 -43 -87 -57 -161 -52 -89 6 -93 14 -97 167 l-4 129 34 10 c18 6 44 13 58 15 14 2 28 5 31 6 3 0 28 -6 56 -14z m2551 -8 c6 -6 13 -24 17 -37 5 -21 0 -31 -32 -56 -53 -43 -82 -57 -104 -51 -22 6 -33 -10 -44 -63 -9 -43 -92 -150 -116 -150 -23 0 -3 65 29 94 45 40 85 110 77 136 -5 15 6 32 46 72 31 32 58 52 69 50 10 -2 21 2 25 8 8 13 20 13 33 -3z m-228 -216 c-11 -21 -30 -37 -30 -25 0 8 30 44 37 44 2 0 -1 -9 -7 -19z m-1615 -129 c0 -68 4 -94 18 -115 17 -26 22 -27 61 -22 28 5 46 3 51 -4 4 -7 -3 -43 -15 -82 -20 -67 -20 -71 -3 -99 9 -17 25 -33 35 -36 9 -3 38 -22 63 -43 36 -30 62 -41 123 -54 68 -15 83 -22 118 -58 40 -41 101 -79 128 -79 9 0 44 27 78 61 79 76 141 112 154 91 5 -8 27 -16 49 -18 71 -5 119 -16 174 -40 29 -13 66 -24 80 -24 15 0 35 -6 44 -12 22 -16 26 -87 8 -149 -12 -45 -14 -47 -58 -53 -74 -10 -105 -7 -161 14 -29 11 -66 20 -82 20 -20 0 -30 5 -30 15 0 9 -10 20 -22 24 -19 8 -28 3 -55 -27 -19 -22 -32 -48 -33 -64 0 -16 -5 -28 -10 -28 -12 0 -2 -109 11 -126 5 -6 6 -14 2 -17 -3 -4 23 -7 59 -7 36 0 89 -5 119 -10 39 -8 62 -7 82 1 45 19 51 2 28 -77 -11 -38 -29 -103 -40 -144 -21 -82 -17 -80 -101 -61 -25 6 -92 21 -150 34 l-105 23 -21 80 c-12 43 -28 93 -37 110 -15 30 -20 31 -94 37 -128 11 -123 7 -123 97 0 69 -3 82 -25 109 -42 49 -204 98 -279 84 -33 -7 -66 -55 -66 -97 0 -16 -12 -44 -28 -65 -42 -54 -115 -176 -157 -261 -20 -41 -49 -91 -65 -110 l-28 -35 -26 24 c-14 13 -27 40 -31 62 -5 29 -15 43 -36 56 -38 23 -44 44 -25 101 8 26 26 94 40 152 40 164 103 368 124 398 11 15 23 38 27 52 11 37 89 214 130 295 26 50 93 161 100 165 0 0 0 -40 0 -88z m1545 72 c0 -8 -5 -12 -10 -9 -6 4 -8 11 -5 16 9 14 15 11 15 -7z m225 -181 c28 -8 71 -24 97 -34 26 -11 64 -19 84 -19 39 0 357 -91 404 -115 15 -8 56 -13 100 -12 79 2 109 -9 195 -67 25 -18 45 -24 63 -20 19 4 35 -1 51 -15 40 -35 152 -23 191 19 21 24 120 -10 120 -41 0 -9 22 -40 48 -68 44 -47 51 -51 95 -51 39 0 45 3 40 17 -4 11 -3 14 5 9 7 -4 12 -15 12 -25 0 -10 9 -25 21 -32 17 -12 19 -18 10 -42 -6 -16 -11 -41 -11 -57 0 -15 -6 -40 -14 -54 -10 -20 -11 -38 -4 -69 12 -54 2 -107 -28 -148 -14 -19 -22 -40 -18 -51 6 -21 -30 -160 -51 -192 -8 -12 -26 -78 -40 -147 -24 -120 -59 -264 -91 -379 -8 -30 -42 -160 -74 -287 -71 -278 -140 -524 -150 -538 -4 -5 -18 -40 -31 -78 -13 -37 -27 -67 -30 -67 -4 0 0 28 7 63 7 34 13 67 14 74 0 16 -51 63 -68 63 -15 0 -63 -45 -79 -73 -9 -17 -15 -18 -74 -7 -35 6 -98 20 -139 30 -41 11 -171 42 -288 70 -117 29 -225 55 -240 60 -42 12 -93 25 -277 70 -93 23 -192 48 -220 56 -27 8 -93 23 -145 34 -52 10 -113 23 -135 28 -22 6 -56 13 -76 16 -28 5 -39 14 -52 41 -10 22 -29 40 -51 49 -29 12 -37 23 -50 67 -9 28 -27 72 -42 96 -14 25 -23 47 -20 50 11 11 39 -22 62 -72 l22 -50 8 29 c4 18 2 46 -5 70 -28 92 -27 98 31 135 59 38 52 53 -11 22 -24 -13 -42 -17 -46 -11 -3 6 -22 10 -42 10 -34 0 -83 30 -83 51 0 4 21 10 48 14 145 21 260 149 203 225 -18 25 -20 36 -12 69 4 21 16 49 25 62 9 13 16 42 16 64 0 23 9 68 19 101 11 32 32 100 47 149 15 50 31 94 35 100 5 5 9 23 9 40 0 19 8 39 19 50 12 10 21 33 23 59 3 40 4 41 36 38 24 -1 32 2 32 14 0 11 -6 15 -20 11 -17 -4 -20 0 -20 34 0 21 -9 62 -20 91 -24 63 -15 78 46 78 49 0 54 8 24 35 -20 18 -20 18 24 65 50 53 85 138 93 223 3 31 10 57 15 57 5 0 20 -7 34 -16 22 -15 33 -15 102 -4 46 8 90 23 111 37 20 13 42 21 50 17 9 -3 39 -13 66 -21z m1765 8 c0 -21 -13 -41 -26 -41 -17 0 -19 36 -1 43 19 8 27 8 27 -2z m-3071 -216 c37 -72 40 -111 9 -121 -15 -5 -26 -1 -38 13 -12 15 -20 17 -31 10 -31 -19 -47 -2 -39 40 10 53 50 137 60 127 4 -5 22 -36 39 -69z m5126 -23 c36 -21 75 -93 75 -140 0 -141 -209 -206 -291 -91 -27 39 -34 87 -20 146 23 96 141 138 236 85z m-5010 -81 c-3 -6 -11 -8 -17 -5 -6 4 -5 9 3 15 16 10 23 4 14 -10z m270 9 c8 -13 -15 -13 -35 0 -12 8 -11 10 7 10 12 0 25 -4 28 -10z m-166 -4 c-61 -59 -129 -100 -129 -78 0 12 101 82 118 82 8 0 13 -2 11 -4z m3481 -199 c47 -13 177 -53 290 -90 277 -88 271 -88 306 -42 22 28 135 115 149 115 1 0 14 -26 28 -57 34 -76 67 -231 67 -314 0 -65 -1 -67 -30 -79 -49 -20 -32 -40 35 -40 55 0 59 -18 52 -222 -7 -171 -31 -373 -48 -392 -5 -5 -20 -5 -36 2 -15 5 -62 15 -103 22 -41 6 -93 18 -115 25 -22 8 -80 24 -130 35 -81 20 -127 35 -360 117 -51 18 -93 25 -155 26 -75 2 -91 -1 -141 -26 -30 -16 -85 -57 -120 -92 -50 -49 -76 -67 -113 -77 -43 -11 -49 -11 -61 5 -7 9 -17 17 -24 17 -16 0 -14 15 4 30 23 19 18 56 -9 73 -40 27 -135 49 -224 52 -88 4 -103 13 -66 41 7 6 14 21 14 33 0 36 28 93 42 85 30 -19 118 -14 118 6 0 5 -7 6 -17 3 -11 -4 -14 -3 -9 6 5 7 15 10 23 7 8 -3 30 1 50 9 25 11 40 12 47 5 5 -5 20 -10 33 -10 12 0 41 -7 63 -16 50 -20 103 -12 136 21 28 28 100 78 129 89 65 26 89 25 125 -1 19 -15 39 -33 43 -40 11 -18 21 -16 63 12 45 31 96 33 124 5 11 -11 25 -20 30 -20 6 0 10 -2 10 -4 0 -2 3 -11 6 -20 4 -11 1 -16 -10 -16 -9 0 -21 -11 -27 -24 -6 -13 -28 -31 -50 -39 -36 -14 -51 -39 -31 -51 15 -9 113 23 146 49 48 37 66 68 66 115 0 59 -21 90 -83 128 l-54 33 -73 -17 -72 -16 -37 35 c-50 47 -88 53 -154 22 -28 -14 -76 -43 -105 -65 -29 -22 -56 -40 -60 -40 -5 0 -24 16 -43 36 -41 43 -82 66 -104 58 -15 -6 -144 20 -175 36 -10 5 -17 31 -22 86 -3 43 -4 82 -1 87 8 13 59 7 98 -13 47 -24 68 -25 103 -6 15 8 39 17 54 20 23 5 30 15 43 59 14 49 18 54 81 86 59 31 114 86 114 115 0 19 34 46 59 46 14 0 64 -11 111 -23z m-333 -62 c-4 -10 -19 -15 -42 -15 -43 0 -38 16 8 28 37 10 42 9 34 -13z m-3603 -131 c21 -20 31 -63 18 -76 -11 -11 -92 26 -92 43 0 43 45 63 74 33z m-138 -105 c47 -37 107 -69 131 -69 10 0 27 -7 37 -15 11 -8 29 -15 40 -15 12 -1 39 -9 61 -20 25 -11 44 -15 51 -9 7 6 17 2 29 -11 10 -11 33 -22 51 -26 18 -3 38 -12 45 -20 13 -16 31 -141 33 -232 2 -77 11 -84 111 -93 75 -6 180 -34 205 -54 8 -7 21 -10 28 -8 6 3 12 -1 12 -7 0 -10 3 -10 14 -1 11 10 17 8 25 -6 8 -15 13 -16 30 -5 19 11 21 10 21 -12 0 -14 -4 -28 -10 -31 -5 -3 -10 -1 -10 5 0 14 -60 -20 -67 -38 -6 -15 -76 -52 -118 -62 -16 -5 -57 -16 -90 -25 -33 -9 -89 -23 -123 -31 l-64 -14 -37 29 c-20 16 -43 40 -50 53 -16 29 -171 167 -210 188 -16 8 -58 32 -93 52 -71 41 -139 68 -173 68 -12 0 -40 -13 -62 -29 -42 -30 -63 -75 -78 -163 -5 -31 -3 -37 10 -32 11 4 15 0 15 -17 0 -28 68 -94 119 -115 41 -18 117 -12 139 9 11 12 8 17 -23 36 -20 11 -38 21 -41 21 -15 0 -94 63 -99 79 -8 27 10 67 39 86 25 16 27 16 79 -25 30 -24 60 -57 67 -74 8 -22 34 -44 84 -76 84 -52 176 -120 176 -129 0 -12 97 -113 127 -132 19 -13 46 -19 85 -19 37 0 62 -5 72 -15 17 -17 38 -19 52 -5 6 6 14 -5 23 -34 11 -37 10 -51 -4 -91 -8 -26 -14 -49 -12 -51 2 -2 20 17 41 41 41 50 61 56 70 23 15 -58 8 -71 -62 -123 -37 -27 -70 -50 -73 -50 -3 0 -23 -20 -45 -45 l-39 -46 -50 14 c-28 8 -65 27 -83 43 -18 16 -39 29 -47 29 -8 0 -23 7 -32 15 -50 44 -198 145 -212 145 -17 0 -84 -58 -226 -194 -91 -87 -103 -96 -125 -96 -15 0 -60 67 -70 105 -6 21 -49 33 -59 17 -3 -6 -20 -12 -36 -14 l-30 -3 -6 65 c-3 37 -15 86 -27 110 -12 26 -24 77 -28 120 -3 41 -15 116 -26 165 -11 50 -27 159 -35 243 -15 142 -15 155 0 188 9 19 17 49 18 67 0 18 6 50 13 72 l12 40 12 -64 c14 -79 24 -91 76 -91 78 0 206 52 206 83 0 5 9 16 20 25 12 10 30 51 44 102 32 116 85 229 107 230 3 0 24 -14 45 -31z m933 -339 c-9 -54 -15 -68 -22 -55 -9 17 -3 68 14 112 17 44 20 18 8 -57z m-2439 -194 c0 -3 -4 -8 -10 -11 -5 -3 -10 -1 -10 4 0 6 5 11 10 11 6 0 10 -2 10 -4z m377 -113 c54 -25 88 -84 87 -152 -1 -97 -44 -149 -128 -158 -107 -13 -185 70 -172 183 8 73 22 92 81 120 59 28 85 30 132 7z m5229 -109 c250 -64 326 -85 424 -113 58 -17 165 -46 239 -66 74 -19 135 -36 138 -38 3 -4 -8 -56 -77 -357 -26 -114 -51 -174 -108 -258 -30 -43 -42 -70 -38 -85 5 -19 -78 -197 -148 -317 -14 -25 -26 -51 -26 -58 0 -26 -41 -72 -64 -72 -21 0 -64 36 -115 96 -207 246 -192 234 -298 234 -62 0 -84 4 -108 20 -99 67 -166 66 -260 -6 l-30 -23 -51 42 c-97 80 -126 102 -174 132 -26 17 -73 47 -104 68 -67 45 -158 64 -214 46 -18 -6 -36 -9 -39 -6 -7 7 65 187 83 206 11 12 24 3 85 -53 40 -36 79 -66 86 -66 21 0 61 63 73 114 6 27 15 56 20 65 8 14 10 13 15 -4 20 -59 30 -76 73 -122 26 -27 69 -60 96 -71 l48 -22 57 30 c31 17 97 69 146 116 63 60 91 81 93 70 5 -22 22 -10 22 14 0 28 55 53 102 47 21 -3 56 -15 78 -26 23 -12 47 -21 55 -21 8 0 44 -17 81 -37 80 -43 137 -49 199 -18 79 40 101 139 53 233 -30 60 -75 85 -138 79 -40 -5 -52 -12 -107 -71 l-62 -65 -53 23 c-29 13 -81 27 -115 30 -71 8 -111 -5 -162 -50 -18 -16 -45 -40 -60 -54 -16 -14 -58 -53 -94 -88 -74 -70 -71 -70 -156 -10 -30 21 -63 38 -73 38 -10 0 -18 6 -18 13 0 39 -111 101 -218 122 -108 22 -103 18 -81 62 10 20 19 48 19 60 0 13 7 39 14 58 11 26 21 35 38 35 13 0 28 -4 34 -10 5 -5 23 -12 39 -14 73 -9 131 -30 151 -52 l20 -25 14 28 c21 42 51 73 71 73 9 0 22 7 29 15 17 21 30 19 30 -5 0 -13 10 -22 35 -29 51 -14 99 3 146 51 58 60 139 118 165 118 12 0 66 -12 120 -26z m-1000 -341 c-11 -11 -17 4 -9 23 7 18 8 18 11 1 2 -10 1 -21 -2 -24z m1314 -3 c22 -22 24 -37 11 -73 -22 -57 -62 -71 -99 -37 -31 29 -27 57 12 96 39 39 49 41 76 14z m-4237 -232 c25 -18 74 -55 109 -81 76 -58 148 -97 181 -97 14 0 30 -7 37 -15 17 -20 69 -19 77 1 3 8 12 13 19 10 20 -8 44 4 44 20 0 8 13 17 30 20 22 5 32 14 40 40 10 30 16 34 46 34 l34 0 -6 -72 c-3 -40 -10 -97 -16 -126 -8 -44 -7 -57 6 -77 22 -34 58 -41 91 -19 15 10 40 17 55 16 15 -1 32 4 38 11 6 7 22 55 35 107 l25 95 51 5 c59 6 106 -16 122 -57 13 -36 11 -111 -6 -167 -8 -27 -15 -56 -15 -65 0 -16 93 -76 134 -87 40 -10 64 31 81 138 4 28 11 37 27 40 22 3 38 35 52 100 7 31 13 30 88 -15 46 -28 47 -28 54 -95 5 -53 3 -77 -10 -112 -24 -60 -30 -91 -20 -88 5 1 19 -3 31 -10 14 -8 24 -9 28 -2 11 17 42 11 48 -9 2 -11 15 -21 28 -23 14 -2 25 -11 27 -22 3 -14 0 -17 -12 -13 -9 4 -16 2 -16 -3 0 -6 9 -10 20 -10 11 0 20 5 20 12 0 6 10 22 21 34 12 13 31 61 45 113 26 101 48 149 70 158 21 8 111 -35 128 -62 22 -33 23 -100 3 -123 -9 -10 -20 -33 -23 -51 -6 -26 -1 -39 26 -72 24 -30 29 -44 21 -52 -24 -24 -12 -37 34 -37 119 0 190 86 187 228 l-1 52 68 0 69 0 18 -37 c19 -41 22 -96 10 -208 -9 -91 0 -104 77 -112 57 -6 59 -7 95 -60 20 -30 46 -70 57 -90 35 -63 75 -86 151 -86 64 0 67 2 110 44 24 24 47 51 50 62 4 12 10 15 17 9 7 -5 30 -12 52 -16 61 -10 91 -25 105 -52 8 -13 18 -24 24 -24 6 0 22 -11 36 -25 14 -14 59 -52 100 -84 109 -85 109 -83 77 -248 -15 -76 -29 -160 -32 -188 -13 -110 -14 -114 -53 -139 -53 -35 -334 -138 -487 -179 -143 -39 -179 -46 -276 -52 -36 -2 -99 -13 -140 -23 -90 -24 -391 -41 -412 -24 -7 6 -47 17 -88 23 -40 7 -77 16 -80 21 -3 5 -23 9 -45 10 -47 1 -90 21 -105 49 -13 25 -83 58 -121 59 l-28 0 21 -36 c11 -20 18 -38 16 -40 -6 -6 -159 25 -171 35 -6 5 -36 16 -66 26 -30 10 -99 39 -155 65 -55 26 -134 63 -175 82 -79 36 -242 138 -273 170 -10 10 -26 18 -36 18 -10 0 -25 7 -32 17 -8 9 -31 24 -51 33 -38 17 -171 126 -290 239 -48 46 -79 86 -103 135 -44 87 -50 94 -96 112 -20 8 -64 44 -98 80 -51 55 -74 92 -141 230 -44 91 -89 178 -100 194 -29 40 -100 215 -100 245 0 34 16 31 29 -5 7 -21 22 -36 48 -46 35 -15 40 -15 73 2 19 11 93 76 165 146 71 70 135 128 141 128 7 0 32 -15 57 -32z m2831 -295 c-3 -16 -8 -34 -10 -41 -2 -7 1 -23 7 -35 18 -34 132 -147 149 -147 8 0 53 26 100 58 l85 57 75 -60 c41 -33 111 -96 155 -141 44 -44 94 -91 112 -102 36 -25 75 -28 92 -8 7 8 25 18 41 21 15 3 61 31 101 61 57 42 80 54 109 54 40 0 56 -13 87 -71 26 -50 82 -119 97 -119 13 0 103 -104 119 -137 8 -18 4 -29 -21 -61 -17 -21 -52 -58 -79 -82 -26 -24 -84 -78 -129 -120 -70 -67 -161 -140 -234 -190 -24 -16 -126 -89 -202 -144 -61 -45 -178 -109 -186 -102 -5 6 19 155 57 360 l19 99 -33 34 c-17 18 -36 33 -41 33 -5 0 -32 22 -61 48 -28 26 -75 65 -103 87 -28 22 -77 61 -108 88 -31 26 -90 64 -130 83 -68 34 -89 51 -145 117 -22 27 -28 28 -72 22 -31 -5 -70 -23 -112 -51 -36 -24 -70 -44 -75 -44 -9 0 -5 21 19 108 8 29 13 80 11 112 -1 32 1 62 5 67 5 4 52 10 105 13 l97 5 45 77 c47 81 65 97 54 51z m842 -188 c29 -29 24 -44 -32 -99 -41 -40 -65 -50 -99 -42 -33 8 -38 32 -16 81 14 31 31 50 58 64 50 26 59 26 89 -4z m-4336 -186 c0 -20 -4 -29 -12 -27 -18 6 -22 39 -6 49 18 12 18 12 18 -22z m3355 -104 c36 -35 36 -115 -1 -152 -23 -23 -31 -25 -81 -21 -43 4 -61 10 -75 28 -33 41 -18 131 26 162 6 4 33 8 59 8 38 0 53 -5 72 -25z m2167 -161 c45 -23 61 -58 66 -143 4 -75 3 -78 -26 -110 -17 -19 -35 -30 -41 -26 -7 4 -18 1 -26 -5 -21 -17 -104 -16 -140 1 -46 22 -77 84 -71 144 5 65 21 98 59 126 54 40 117 44 179 13z m-5335 -153 c77 -35 107 -145 63 -231 -11 -22 -20 -46 -20 -54 0 -10 -10 -15 -27 -15 -16 -1 -49 -1 -75 -1 -70 -1 -110 20 -141 73 -54 92 -23 190 73 231 47 20 77 19 127 -3z m3892 -1129 c42 -31 64 -69 68 -119 10 -104 -71 -183 -173 -169 -60 8 -81 23 -109 80 -29 59 -30 70 -9 133 15 47 39 74 79 93 29 14 116 3 144 -18z m-1950 -70 c48 -35 65 -69 65 -125 0 -61 -20 -97 -71 -128 -78 -48 -139 -42 -197 20 -23 24 -30 42 -34 84 -5 59 7 91 55 147 27 32 28 32 92 26 40 -3 75 -13 90 -24z"
       id="path9967" />
    <path
       d="M2325 4220 c-3 -5 3 -10 14 -10 11 0 23 5 26 10 3 6 -3 10 -14 10 -11 0 -23 -4 -26 -10z"
       id="path9969" />
  </g>
  <g
     id="g10608"
     transform="matrix(0.01041141,0,0,-0.01041141,301.14353,429.9292)"
     style="fill:#000000;stroke:none">
    <path
       id="path10606"
       d="m 5160,12790 c -200,-13 -237,-25 -341,-115 -62,-54 -145,-178 -158,-238 -23,-104 -52,-272 -65,-382 -8,-67 -20,-134 -26,-150 -6,-16 -20,-95 -30,-175 -10,-80 -24,-158 -30,-174 -6,-16 -22,-124 -36,-240 -25,-217 -55,-400 -92,-566 -11,-52 -28,-133 -37,-180 -9,-47 -21,-105 -26,-130 -5,-25 -15,-128 -24,-230 -8,-102 -21,-223 -29,-270 -8,-47 -17,-121 -21,-165 -9,-115 -24,-230 -40,-310 -8,-38 -19,-131 -25,-205 -6,-74 -20,-193 -30,-265 -11,-71 -26,-218 -35,-325 -8,-107 -22,-232 -30,-278 -8,-45 -19,-169 -25,-275 -6,-105 -20,-259 -31,-342 -10,-82 -23,-222 -29,-310 -12,-197 -17,-247 -35,-355 -8,-47 -21,-152 -30,-235 -8,-82 -22,-172 -30,-198 -8,-27 -19,-87 -25,-135 -6,-48 -19,-123 -30,-167 -11,-44 -26,-132 -34,-195 -8,-64 -20,-128 -25,-144 -6,-15 -20,-85 -31,-156 -11,-71 -25,-141 -31,-157 -6,-15 -19,-77 -30,-138 -11,-60 -24,-114 -30,-121 -5,-6 -18,-49 -28,-95 -10,-46 -24,-95 -30,-109 -7,-14 -22,-65 -35,-115 -24,-89 -37,-133 -77,-250 -11,-33 -28,-89 -38,-125 -10,-36 -25,-78 -33,-95 -9,-16 -23,-57 -33,-90 -9,-33 -21,-65 -26,-72 -6,-6 -18,-41 -29,-78 -11,-37 -24,-73 -29,-79 -6,-7 -22,-44 -35,-82 -47,-134 -84,-229 -100,-259 -9,-16 -16,-36 -16,-43 0,-7 -9,-32 -21,-55 -11,-23 -31,-71 -44,-107 -13,-36 -37,-101 -53,-145 -17,-44 -38,-102 -47,-130 -10,-27 -26,-72 -37,-100 -11,-27 -28,-77 -38,-111 -10,-33 -25,-74 -33,-91 -9,-16 -21,-52 -28,-79 -7,-27 -23,-69 -36,-93 -13,-24 -23,-51 -23,-60 0,-9 -11,-35 -24,-58 -14,-23 -27,-53 -31,-65 -7,-23 -67,-155 -88,-193 -6,-11 -19,-38 -29,-60 -10,-22 -23,-47 -28,-55 -10,-16 -55,-96 -103,-184 -15,-28 -41,-71 -57,-96 -16,-25 -40,-66 -54,-91 -13,-25 -32,-51 -40,-58 -9,-8 -16,-19 -16,-26 0,-7 -12,-30 -27,-51 -27,-40 -53,-84 -97,-166 -14,-26 -30,-49 -36,-53 -6,-3 -19,-24 -31,-46 -11,-22 -28,-48 -37,-59 -9,-10 -30,-37 -47,-60 -54,-76 -299,-314 -376,-368 -13,-9 -28,-21 -34,-28 -9,-10 -76,-56 -170,-116 -22,-14 -56,-31 -76,-37 -20,-7 -45,-21 -54,-31 -10,-11 -24,-20 -31,-20 -6,0 -38,-13 -69,-30 -31,-16 -85,-37 -118,-45 -34,-9 -78,-22 -98,-30 -20,-8 -77,-19 -125,-26 C 855,943 797,932 775,925 753,917 695,904 645,896 596,887 537,873 515,865 493,857 446,846 411,840 314,823 152,739 80,669 47,637 41,623 31,564 15,458 15,450 34,370 56,279 96,207 147,161 188,124 297,75 370,59 424,48 741,27 860,26 c 154,0 510,32 585,54 39,11 97,25 130,31 32,6 78,22 101,35 22,13 47,24 55,24 8,0 32,9 53,20 22,11 60,27 87,35 57,19 162,72 206,103 17,12 34,22 37,22 4,0 29,16 57,35 28,19 57,35 64,35 7,0 18,7 26,16 7,8 33,27 58,40 95,51 219,153 446,365 184,173 340,338 395,419 13,19 27,37 30,40 3,3 17,21 30,40 14,19 28,40 33,45 4,6 21,30 37,55 16,25 46,70 67,102 66,98 157,251 212,357 7,14 24,43 38,63 29,43 54,86 82,144 11,22 29,52 40,65 10,13 26,40 35,59 9,19 33,62 53,95 20,33 75,137 123,230 48,94 94,184 102,200 9,17 31,64 48,105 18,41 43,98 56,125 32,69 72,169 93,235 10,30 25,69 34,85 9,17 25,57 35,90 11,33 36,105 56,160 20,55 44,124 52,154 8,30 22,64 30,75 7,12 22,47 33,77 48,135 83,224 91,234 5,6 19,41 30,78 11,36 25,69 29,72 5,3 19,36 32,73 12,37 25,72 29,77 5,6 16,37 25,70 9,33 23,70 30,81 8,12 21,50 30,85 9,35 23,75 30,90 8,14 23,57 34,95 27,93 78,239 92,266 7,12 20,54 30,93 19,76 67,187 84,192 6,2 34,-45 63,-105 61,-122 104,-198 147,-261 17,-24 46,-67 65,-96 79,-118 66,-101 178,-230 82,-94 147,-157 257,-248 44,-37 88,-73 97,-82 10,-8 36,-27 59,-42 23,-15 60,-40 83,-56 22,-15 54,-35 70,-45 16,-9 40,-27 55,-38 14,-12 42,-29 61,-38 19,-10 62,-32 95,-51 33,-19 76,-41 95,-50 172,-82 238,-109 325,-135 33,-10 76,-25 95,-33 20,-9 71,-23 115,-31 44,-9 104,-23 134,-31 98,-27 400,-40 582,-26 87,7 183,19 212,27 28,8 81,21 117,30 36,8 93,26 128,40 34,13 70,24 79,24 9,0 39,13 67,29 28,15 69,34 91,41 22,7 47,18 55,25 8,7 35,22 60,34 69,32 118,61 203,118 43,29 80,53 82,53 3,0 26,16 52,35 27,19 68,49 93,67 160,115 387,335 420,407 27,56 79,126 155,206 32,33 68,77 81,98 25,39 48,46 78,24 15,-11 22,-45 37,-168 11,-85 28,-185 39,-224 10,-38 24,-106 30,-150 7,-44 18,-96 26,-115 8,-19 22,-66 31,-105 8,-38 22,-83 30,-98 7,-15 23,-57 34,-92 11,-35 24,-67 29,-70 5,-3 14,-25 20,-48 6,-23 22,-69 37,-102 46,-105 104,-230 113,-245 6,-8 24,-40 40,-70 17,-30 44,-75 60,-100 17,-25 38,-58 48,-73 52,-84 180,-238 286,-343 48,-47 244,-214 251,-214 4,0 43,-27 87,-60 45,-33 86,-60 93,-60 7,0 23,-8 36,-19 85,-66 217,-117 406,-157 62,-12 123,-29 135,-35 14,-8 75,-15 155,-17 129,-4 133,-4 188,24 67,34 115,88 175,196 19,35 92,97 149,128 14,7 47,34 75,61 28,27 63,51 78,54 15,4 47,27 70,52 24,25 70,73 104,107 76,77 98,110 101,155 1,20 5,74 8,121 6,73 4,93 -13,135 -11,28 -27,71 -36,97 -21,57 -46,68 -160,68 -45,1 -99,5 -121,9 -22,5 -94,20 -161,34 -67,14 -134,32 -150,40 -16,8 -54,22 -84,30 -64,18 -174,61 -210,83 -14,8 -43,24 -65,35 -39,19 -80,45 -140,91 -51,39 -199,191 -232,238 -37,52 -123,220 -123,238 0,7 -8,29 -19,50 -10,20 -24,62 -31,92 -7,30 -21,74 -31,97 -11,23 -26,71 -34,106 -8,35 -21,79 -29,98 -8,19 -19,81 -26,139 -6,58 -18,139 -26,181 -26,130 -34,313 -44,994 -11,707 3,1295 35,1545 8,63 22,190 30,282 9,92 24,212 35,265 10,54 24,157 30,228 6,72 18,152 25,179 8,27 22,103 30,170 9,66 24,157 35,201 10,44 24,133 30,198 6,65 18,137 26,159 7,22 19,70 24,106 6,37 24,110 40,162 26,89 41,146 77,295 8,33 21,85 29,115 9,30 26,93 38,140 13,47 28,96 35,110 6,14 20,67 31,118 11,52 27,106 34,120 8,15 19,54 26,87 7,33 20,69 30,80 10,11 26,40 37,65 11,25 30,53 41,64 12,10 33,50 48,90 15,39 37,82 49,96 60,66 89,164 101,334 6,94 -2,144 -47,278 -15,45 -19,86 -19,188 0,120 -2,135 -25,178 -14,26 -25,54 -25,62 0,33 -30,60 -67,60 -43,0 -94,30 -113,66 -8,14 -38,41 -66,60 -52,35 -102,86 -131,136 -15,24 -75,58 -131,73 -12,4 -33,18 -46,32 -21,23 -29,25 -77,19 -56,-6 -67,-7 -159,-4 -30,1 -95,-3 -145,-10 -49,-7 -124,-18 -165,-23 -220,-30 -382,-197 -410,-423 -6,-48 -19,-108 -29,-134 -10,-26 -24,-90 -31,-142 -6,-52 -20,-133 -31,-179 -10,-46 -24,-127 -29,-180 -6,-53 -20,-125 -30,-161 -11,-36 -26,-99 -34,-140 -8,-41 -21,-94 -29,-116 -9,-23 -20,-77 -27,-120 -6,-44 -20,-108 -30,-144 -11,-36 -28,-146 -39,-245 -47,-415 -71,-604 -85,-665 -8,-36 -22,-141 -31,-235 -8,-93 -22,-195 -30,-225 -8,-30 -22,-107 -30,-170 -8,-63 -20,-131 -26,-150 -5,-19 -21,-125 -35,-235 -13,-110 -29,-225 -34,-255 -5,-30 -14,-93 -20,-140 -6,-47 -19,-114 -30,-150 -10,-36 -28,-101 -39,-145 -42,-170 -62,-243 -85,-315 -13,-41 -30,-97 -36,-125 -6,-27 -16,-56 -22,-63 -6,-7 -21,-49 -34,-95 -25,-91 -69,-221 -84,-252 -6,-11 -21,-51 -34,-90 -35,-101 -75,-205 -91,-234 -8,-14 -50,-100 -95,-191 -45,-91 -96,-192 -115,-225 -18,-33 -43,-78 -55,-100 -11,-22 -38,-69 -60,-105 -21,-36 -48,-81 -59,-101 -22,-40 -86,-135 -131,-194 -16,-22 -38,-52 -48,-67 -81,-120 -550,-599 -630,-642 -9,-5 -27,-19 -39,-30 -74,-72 -274,-190 -357,-211 -28,-8 -71,-21 -96,-31 -36,-13 -77,-17 -200,-17 -150,0 -157,1 -235,32 -44,17 -87,36 -95,42 -8,5 -28,17 -43,27 -55,33 -76,53 -149,141 -123,151 -158,219 -248,491 -12,36 -30,85 -41,110 -10,25 -26,83 -35,130 -9,47 -21,96 -26,110 -5,14 -16,153 -24,310 -9,169 -23,332 -34,401 -13,78 -20,164 -20,260 0,166 -25,566 -40,654 -20,117 -32,517 -26,842 7,329 -1,504 -30,673 -8,47 -17,139 -21,206 -5,103 -3,135 15,210 12,49 26,126 32,172 6,46 18,104 26,130 23,73 43,230 49,386 4,77 10,168 15,201 5,33 16,139 25,235 9,96 22,200 29,230 23,91 38,242 35,336 -3,75 -8,94 -28,123 -22,30 -25,51 -37,215 -8,99 -20,199 -28,221 -8,22 -20,74 -26,115 -6,41 -17,93 -25,115 -8,22 -21,72 -29,112 -17,81 -52,137 -154,244 -118,125 -236,174 -497,205 -184,22 -218,23 -355,14 z"
       inkscape:connector-curvature="0" />
  </g>
</svg>
